<svg width="301" height="61" viewBox="0 0 301 61" fill="none" xmlns="http://www.w3.org/2000/svg">
<path d="M214.922 17.1094L212.317 19.0145L225.679 28.7861L212.317 38.5577L214.922 40.4628L230.805 28.7861L214.922 17.1094Z" fill="#F0A334"/>
<path d="M233.131 16.7852L230.481 18.6903L244.077 28.4619L230.481 38.2335L233.131 40.1386L249.293 28.4619L233.131 16.7852Z" fill="#F0A335"/>
<path d="M251.898 16.7852L249.293 18.6903L262.655 28.4619L249.293 38.2335L251.898 40.1386L267.781 28.4619L251.898 16.7852Z" fill="#F0A234"/>
<path d="M11.3653 39.3425C8.08548 39.3425 5.59445 38.4707 3.89224 36.7269C2.19003 34.9624 1.33893 32.2534 1.33893 28.5999C1.33893 25.0502 2.16928 22.3723 3.82997 20.5663C5.49066 18.7396 8.00245 17.8262 11.3653 17.8262C12.4656 17.8262 13.5658 17.9611 14.666 18.231C15.7869 18.5009 16.8664 18.8745 17.9043 19.352V23.0885C16.8456 22.4242 15.8181 21.9468 14.8217 21.6562C13.8252 21.3656 12.86 21.2202 11.9258 21.2202C10.5558 21.2202 9.40366 21.4693 8.46952 21.9676C7.55614 22.445 6.86072 23.2234 6.38328 24.3029C5.92659 25.3823 5.69824 26.8251 5.69824 28.6311C5.69824 30.4163 5.93697 31.8487 6.41441 32.9281C6.89186 34.0076 7.59766 34.786 8.53179 35.2634C9.48669 35.7409 10.6699 35.9796 12.0815 35.9796C12.9326 35.9796 13.846 35.8343 14.8217 35.5437C15.8181 35.2531 16.8456 34.786 17.9043 34.1425V37.879C17.3023 38.1697 16.6277 38.4291 15.8803 38.6575C15.1538 38.8858 14.4065 39.0519 13.6384 39.1557C12.8703 39.2802 12.1127 39.3425 11.3653 39.3425ZM19.9891 39L27.9604 18.231H32.5377L40.1353 39H35.776L28.988 19.6633L30.8562 19.5077L24.0682 39H19.9891ZM24.1927 33.9245L25.1891 30.6862H34.873L35.2155 33.9245H24.1927ZM42.9302 39V18.231H52.583C54.8457 18.231 56.5894 18.7707 57.8141 19.8502C59.0597 20.9089 59.6824 22.5073 59.6824 24.6454C59.6824 25.6418 59.4748 26.5967 59.0597 27.5101C58.6652 28.4027 58.0736 29.15 57.2848 29.752C56.5167 30.354 55.5722 30.7277 54.4512 30.873L54.4824 29.5029L60.7411 39H55.4165L49.9362 29.8143L51.8357 31.4958H47.165V39H42.9302ZM47.165 28.2574H51.68C52.8217 28.2574 53.6935 27.9876 54.2956 27.4478C54.8975 26.8873 55.1985 26.0259 55.1985 24.8634C55.1985 23.8254 54.9494 23.0262 54.4512 22.4658C53.953 21.9053 53.1642 21.625 52.0848 21.625H47.165V28.2574ZM64.3071 39V18.231H72.1227C75.5687 18.231 78.1116 19.1029 79.7515 20.8466C81.4122 22.5903 82.2426 25.1748 82.2426 28.5999C82.2426 32.0251 81.4122 34.6199 79.7515 36.3844C78.1116 38.1281 75.5687 39 72.1227 39H64.3071ZM68.5419 35.606H71.6557C73.7523 35.606 75.3196 35.0559 76.3575 33.9557C77.3954 32.8347 77.9144 31.0494 77.9144 28.5999C77.9144 26.1712 77.3954 24.3963 76.3575 23.2753C75.3196 22.1544 73.7523 21.5939 71.6557 21.5939H68.5419V35.606ZM116.417 31.8694V39H112.182V18.231H120.963C123.35 18.231 125.218 18.7811 126.567 19.8813C127.917 20.9815 128.591 22.6526 128.591 24.8945C128.591 27.1364 127.917 28.8594 126.567 30.0634C125.218 31.2674 123.35 31.8694 120.963 31.8694H116.417ZM116.417 28.4754H120.433C121.139 28.4754 121.731 28.3923 122.208 28.2263C122.686 28.0394 123.059 27.7903 123.329 27.479C123.599 27.1468 123.786 26.7836 123.89 26.3891C124.014 25.9947 124.076 25.5692 124.076 25.1125C124.076 24.635 124.014 24.1887 123.89 23.7736C123.786 23.3584 123.599 22.9847 123.329 22.6526C123.059 22.3204 122.686 22.0713 122.208 21.9053C121.731 21.7184 121.139 21.625 120.433 21.625H116.417V28.4754ZM132.403 39V18.231H142.056C144.319 18.231 146.062 18.7707 147.287 19.8502C148.533 20.9089 149.155 22.5073 149.155 24.6454C149.155 25.6418 148.948 26.5967 148.533 27.5101C148.138 28.4027 147.547 29.15 146.758 29.752C145.99 30.354 145.045 30.7277 143.924 30.873L143.955 29.5029L150.214 39H144.889L139.409 29.8143L141.309 31.4958H136.638V39H132.403ZM136.638 28.2574H141.153C142.295 28.2574 143.166 27.9876 143.769 27.4478C144.37 26.8873 144.671 26.0259 144.671 24.8634C144.671 23.8254 144.422 23.0262 143.924 22.4658C143.426 21.9053 142.637 21.625 141.558 21.625H136.638V28.2574ZM153.78 39V18.231H167.699V21.625H158.015V26.8873H166.422V30.3125H158.015V35.606H167.699V39H153.78ZM178.78 39.3737C177.721 39.3737 176.776 39.3218 175.946 39.218C175.137 39.1142 174.389 38.9481 173.704 38.7198C173.04 38.4914 172.365 38.2008 171.68 37.8479V33.7688C172.552 34.4746 173.569 35.0351 174.732 35.4503C175.915 35.8447 177.119 36.0419 178.344 36.0419C179.465 36.0419 180.305 35.8239 180.866 35.388C181.447 34.9313 181.738 34.2774 181.738 33.4263C181.738 32.7828 181.499 32.2638 181.022 31.8694C180.565 31.475 179.953 31.1325 179.184 30.8419C178.416 30.5512 177.576 30.2502 176.662 29.9389C176.019 29.7105 175.386 29.4614 174.763 29.1916C174.161 28.9009 173.611 28.5377 173.113 28.1017C172.635 27.6658 172.251 27.1261 171.96 26.4826C171.67 25.8183 171.525 25.0087 171.525 24.0538C171.525 23.2857 171.67 22.528 171.96 21.7807C172.251 21.0334 172.697 20.3691 173.299 19.7879C173.901 19.1859 174.68 18.7084 175.635 18.3556C176.59 18.0027 177.731 17.8262 179.06 17.8262C179.89 17.8262 180.617 17.8781 181.24 17.9819C181.883 18.0857 182.495 18.2414 183.077 18.449C183.658 18.6566 184.26 18.916 184.883 19.2274V23.3065C184.385 22.9536 183.855 22.6214 183.295 22.3101C182.734 21.9779 182.132 21.7081 181.489 21.5005C180.866 21.2929 180.191 21.1787 179.465 21.158C178.717 21.1372 178.074 21.2202 177.534 21.4071C176.994 21.5939 176.579 21.8741 176.289 22.2478C175.998 22.6214 175.853 23.0678 175.853 23.5867C175.853 24.2302 176.029 24.7492 176.382 25.1436C176.735 25.5173 177.233 25.8287 177.877 26.0778C178.52 26.3269 179.257 26.5863 180.087 26.8562C180.897 27.1053 181.655 27.3856 182.361 27.6969C183.087 27.9876 183.72 28.3612 184.26 28.8179C184.82 29.2746 185.256 29.8351 185.568 30.4993C185.9 31.1636 186.066 31.9732 186.066 32.9281C186.066 34.0906 185.796 35.1597 185.256 36.1353C184.717 37.111 183.907 37.8998 182.828 38.5018C181.769 39.083 180.42 39.3737 178.78 39.3737ZM196.538 39.3737C195.479 39.3737 194.535 39.3218 193.704 39.218C192.895 39.1142 192.148 38.9481 191.463 38.7198C190.798 38.4914 190.124 38.2008 189.439 37.8479V33.7688C190.31 34.4746 191.328 35.0351 192.49 35.4503C193.673 35.8447 194.877 36.0419 196.102 36.0419C197.223 36.0419 198.064 35.8239 198.624 35.388C199.206 34.9313 199.496 34.2774 199.496 33.4263C199.496 32.7828 199.257 32.2638 198.78 31.8694C198.323 31.475 197.711 31.1325 196.943 30.8419C196.175 30.5512 195.334 30.2502 194.421 29.9389C193.777 29.7105 193.144 29.4614 192.521 29.1916C191.919 28.9009 191.369 28.5377 190.871 28.1017C190.393 27.6658 190.009 27.1261 189.719 26.4826C189.428 25.8183 189.283 25.0087 189.283 24.0538C189.283 23.2857 189.428 22.528 189.719 21.7807C190.009 21.0334 190.456 20.3691 191.058 19.7879C191.66 19.1859 192.438 18.7084 193.393 18.3556C194.348 18.0027 195.49 17.8262 196.818 17.8262C197.649 17.8262 198.375 17.8781 198.998 17.9819C199.641 18.0857 200.254 18.2414 200.835 18.449C201.416 18.6566 202.018 18.916 202.641 19.2274V23.3065C202.143 22.9536 201.614 22.6214 201.053 22.3101C200.493 21.9779 199.891 21.7081 199.247 21.5005C198.624 21.2929 197.95 21.1787 197.223 21.158C196.476 21.1372 195.832 21.2202 195.293 21.4071C194.753 21.5939 194.338 21.8741 194.047 22.2478C193.756 22.6214 193.611 23.0678 193.611 23.5867C193.611 24.2302 193.788 24.7492 194.14 25.1436C194.493 25.5173 194.992 25.8287 195.635 26.0778C196.279 26.3269 197.015 26.5863 197.846 26.8562C198.655 27.1053 199.413 27.3856 200.119 27.6969C200.845 27.9876 201.479 28.3612 202.018 28.8179C202.579 29.2746 203.015 29.8351 203.326 30.4993C203.658 31.1636 203.824 31.9732 203.824 32.9281C203.824 34.0906 203.554 35.1597 203.015 36.1353C202.475 37.111 201.665 37.8998 200.586 38.5018C199.527 39.083 198.178 39.3737 196.538 39.3737Z" fill="#0A0788"/>
<path d="M109.314 39H102.634L84.2736 12.32H90.9936L109.314 39ZM96.5936 22.56L102.994 12.32H109.074L99.5136 26.68L96.5936 22.56ZM97.6736 27.52L90.4336 39H84.3936L94.5936 23.88L97.6736 27.52Z" fill="#F0A334"/>
</svg>
